<svg width="304" height="414" viewBox="0 0 304 414" fill="none" xmlns="http://www.w3.org/2000/svg">
<path d="M80.7209 172.85C66.4267 119.504 98.085 64.6699 151.432 50.3757L253.087 23.1372L280.995 127.291L82.7469 180.411L80.7209 172.85Z" fill="#D4D3D3"/>
<path d="M222.226 150.758C236.52 204.105 204.862 258.939 151.515 273.233L49.8596 300.471L22.0427 196.657L220.291 143.537L222.226 150.758Z" fill="#D4D3D3"/>
<path fill-rule="evenodd" clip-rule="evenodd" d="M83.8628 121.045C80.3654 132.589 78.9124 144.965 79.8959 157.715L80.0975 160.328L284.731 144.544L281.741 105.782L254.302 107.898L252.723 87.4348L280.163 85.3183L276.839 42.2269L171.909 50.3208C137.87 52.9465 109.131 72.3225 93.1494 99.7438L127.02 97.1311L128.598 117.594L83.8628 121.045ZM162.1 94.4251L217.643 90.1407L219.222 110.604L163.678 114.888L162.1 94.4251Z" fill="#FF7979"/>
<path fill-rule="evenodd" clip-rule="evenodd" d="M219.084 198.674C222.581 187.13 224.034 174.754 223.051 162.003L222.849 159.391L18.2156 175.175L21.2055 213.937L48.6446 211.821L50.2231 232.284L22.784 234.401L26.1079 277.492L131.038 269.398C165.077 266.772 193.816 247.396 209.797 219.975L175.927 222.588L174.348 202.124L219.084 198.674ZM140.847 225.294L85.3032 229.578L83.7247 209.115L139.268 204.83L140.847 225.294Z" fill="#FF7979"/>
<path d="M41.4272 397.114C37.1948 397.114 33.022 396.662 28.9088 395.759C24.8553 394.796 21.6065 393.472 19.1624 391.786C18.3875 391.244 18 390.763 18 390.341C18 389.92 18.1192 389.559 18.3577 389.258L21.3084 384.562C21.6661 384.02 21.994 383.749 22.292 383.749C22.5901 383.749 22.9775 383.9 23.4544 384.201C25.66 385.525 28.2233 386.609 31.1443 387.452C34.0652 388.234 37.016 388.625 39.9965 388.625C44.0501 388.625 47.0903 387.963 49.117 386.639C51.2034 385.254 52.2466 383.057 52.2466 380.047C52.2466 378.241 51.8592 376.796 51.0842 375.712C50.3093 374.629 49.1767 373.696 47.6864 372.913C46.1961 372.13 43.7818 371.077 40.4436 369.753L38.387 368.94C34.5123 367.375 31.2933 365.87 28.73 364.425C26.2263 362.98 24.14 361.084 22.4708 358.736C20.8017 356.388 19.9672 353.528 19.9672 350.157C19.9672 344.679 22.0238 340.465 26.1369 337.515C30.3097 334.505 35.7641 333 42.5002 333C46.6134 333 50.1602 333.391 53.1408 334.174C56.181 334.957 58.8039 336.161 61.0095 337.786C61.7248 338.328 62.0825 338.839 62.0825 339.321C62.0825 339.682 61.9633 340.013 61.7248 340.314L58.8635 345.01C58.5058 345.552 58.2078 345.823 57.9693 345.823C57.7309 345.823 57.3434 345.642 56.8069 345.281C52.9918 342.813 48.2527 341.579 42.5896 341.579C38.8341 341.579 36.0026 342.271 34.095 343.656C32.1875 345.04 31.2337 347.237 31.2337 350.247C31.2337 352.114 31.6212 353.619 32.3961 354.763C33.2307 355.846 34.4229 356.779 35.9728 357.562C37.5227 358.344 40.0263 359.398 43.4838 360.722L45.7192 361.625C50.0708 363.371 53.4687 364.997 55.9127 366.502C58.3568 367.946 60.2345 369.783 61.546 372.01C62.917 374.177 63.6026 376.977 63.6026 380.408C63.6026 385.585 61.6652 389.679 57.7905 392.689C53.9754 395.639 48.5209 397.114 41.4272 397.114Z" fill="#C4C4C4"/>
<path d="M94.4709 397.114C86.5426 397.114 80.3431 395.157 75.8722 391.244C71.461 387.271 69.2554 381.612 69.2554 374.268C69.2554 369.692 70.2688 365.659 72.2956 362.167C74.3223 358.676 77.2135 355.967 80.969 354.04C84.7841 352.054 89.2251 351.06 94.2921 351.06C98.0476 351.06 101.237 351.421 103.86 352.144C106.483 352.866 108.927 354.04 111.192 355.666C111.728 356.027 111.997 356.418 111.997 356.839C111.997 357.201 111.848 357.622 111.55 358.104L109.135 362.348C108.778 362.95 108.45 363.251 108.152 363.251C107.854 363.251 107.436 363.07 106.9 362.709C105.052 361.565 103.204 360.722 101.356 360.181C99.5677 359.579 97.4217 359.278 94.918 359.278C90.4472 359.278 86.9301 360.632 84.3668 363.341C81.8036 365.99 80.5219 369.632 80.5219 374.268C80.5219 379.144 81.8036 382.816 84.3668 385.284C86.9301 387.692 90.6856 388.896 95.6333 388.896C98.137 388.896 100.313 388.595 102.161 387.993C104.009 387.391 105.797 386.518 107.526 385.375C108.003 385.074 108.39 384.923 108.688 384.923C109.046 384.923 109.404 385.224 109.761 385.826L112.354 390.251C112.593 390.552 112.712 390.883 112.712 391.244C112.712 391.666 112.414 392.087 111.818 392.508C109.433 394.074 106.87 395.217 104.128 395.94C101.386 396.722 98.1668 397.114 94.4709 397.114Z" fill="#C4C4C4"/>
<path d="M125 395.759C123.808 395.759 122.944 395.488 122.407 394.946C121.871 394.405 121.603 393.592 121.603 392.508V354.853C121.603 353.95 121.752 353.318 122.05 352.957C122.348 352.595 122.974 352.415 123.927 352.415H129.024C129.68 352.415 130.157 352.565 130.455 352.866C130.753 353.107 130.932 353.559 130.991 354.221L131.26 357.472C134.777 353.197 139.397 351.06 145.119 351.06C147.742 351.06 149.739 351.512 151.11 352.415C151.468 352.656 151.676 352.926 151.736 353.227C151.855 353.468 151.855 353.769 151.736 354.13L150.127 359.548C149.948 360.151 149.62 360.452 149.143 360.452L148.428 360.271C146.997 359.609 145.358 359.278 143.51 359.278C140.47 359.278 137.966 360.151 135.999 361.896C134.032 363.582 133.048 365.9 133.048 368.85V392.508C133.048 393.592 132.78 394.405 132.243 394.946C131.766 395.488 130.902 395.759 129.65 395.759H125Z" fill="#C4C4C4"/>
<path d="M163.272 344.92C161.842 344.92 160.739 344.498 159.964 343.656C159.189 342.813 158.801 341.789 158.801 340.585V338.689C158.801 337.485 159.189 336.462 159.964 335.619C160.739 334.776 161.842 334.355 163.272 334.355H167.117C168.548 334.355 169.651 334.776 170.426 335.619C171.26 336.462 171.677 337.485 171.677 338.689V340.585C171.677 341.789 171.26 342.813 170.426 343.656C169.651 344.498 168.548 344.92 167.117 344.92H163.272ZM162.915 395.759C161.722 395.759 160.858 395.488 160.322 394.946C159.785 394.405 159.517 393.592 159.517 392.508V355.756C159.517 354.612 159.785 353.769 160.322 353.227C160.858 352.686 161.722 352.415 162.915 352.415H167.564C168.757 352.415 169.621 352.686 170.157 353.227C170.694 353.769 170.962 354.612 170.962 355.756V392.508C170.962 393.592 170.694 394.405 170.157 394.946C169.68 395.488 168.816 395.759 167.564 395.759H162.915Z" fill="#C4C4C4"/>
<path d="M185.601 395.759C184.409 395.759 183.545 395.488 183.008 394.946C182.472 394.405 182.203 393.592 182.203 392.508V354.853C182.203 353.95 182.353 353.318 182.651 352.957C182.949 352.595 183.575 352.415 184.528 352.415H189.267C189.923 352.415 190.4 352.565 190.698 352.866C190.996 353.107 191.175 353.559 191.235 354.221L191.503 358.013C193.232 355.786 195.199 354.07 197.404 352.866C199.67 351.662 202.352 351.06 205.452 351.06C208.075 351.06 210.34 351.662 212.248 352.866C214.215 354.01 215.645 355.726 216.54 358.013C219.818 353.378 224.557 351.06 230.757 351.06C234.989 351.06 238.327 352.355 240.771 354.943C243.275 357.532 244.527 361.385 244.527 366.502V392.508C244.527 393.592 244.259 394.405 243.722 394.946C243.245 395.488 242.381 395.759 241.129 395.759H237.195C236.003 395.759 235.138 395.488 234.602 394.946C234.065 394.405 233.797 393.592 233.797 392.508V367.134C233.797 364.365 233.201 362.378 232.009 361.174C230.876 359.97 229.147 359.368 226.822 359.368C224.378 359.368 222.381 360.181 220.832 361.806C219.341 363.431 218.596 365.629 218.596 368.398V392.508C218.596 393.592 218.328 394.405 217.791 394.946C217.255 395.488 216.391 395.759 215.198 395.759H211.532C210.34 395.759 209.476 395.488 208.939 394.946C208.403 394.405 208.134 393.592 208.134 392.508V366.682C208.134 364.154 207.598 362.318 206.525 361.174C205.511 359.97 203.872 359.368 201.607 359.368C199.044 359.368 196.957 360.241 195.348 361.987C193.738 363.672 192.934 365.9 192.934 368.669V392.508C192.934 393.592 192.665 394.405 192.129 394.946C191.652 395.488 190.787 395.759 189.536 395.759H185.601Z" fill="#C4C4C4"/>
<path d="M257.901 414C256.709 414 255.845 413.729 255.308 413.187C254.831 412.645 254.593 411.833 254.593 410.749V356.749C256.858 355.124 259.868 353.769 263.624 352.686C267.439 351.602 271.254 351.06 275.069 351.06C292.356 351.06 301 358.766 301 374.177C301 381.281 299.092 386.88 295.277 390.973C291.522 395.067 286.336 397.114 279.719 397.114C273.698 397.114 269.078 395.368 265.859 391.876V410.749C265.859 411.893 265.591 412.706 265.054 413.187C264.578 413.729 263.713 414 262.461 414H257.901ZM277.036 388.896C281.269 388.896 284.428 387.602 286.514 385.013C288.601 382.425 289.644 378.692 289.644 373.816C289.644 368.579 288.422 364.876 285.978 362.709C283.534 360.482 279.778 359.368 274.711 359.368C270.956 359.368 268.005 359.94 265.859 361.084V378.873C265.859 381.943 266.932 384.381 269.078 386.187C271.224 387.993 273.877 388.896 277.036 388.896Z" fill="#C4C4C4"/>
<path d="M44.4272 394.114C40.1948 394.114 36.022 393.662 31.9088 392.759C27.8553 391.796 24.6065 390.472 22.1624 388.786C21.3875 388.244 21 387.763 21 387.341C21 386.92 21.1192 386.559 21.3577 386.258L24.3084 381.562C24.6661 381.02 24.994 380.749 25.292 380.749C25.5901 380.749 25.9775 380.9 26.4544 381.201C28.66 382.525 31.2233 383.609 34.1443 384.452C37.0652 385.234 40.016 385.625 42.9965 385.625C47.0501 385.625 50.0903 384.963 52.117 383.639C54.2034 382.254 55.2466 380.057 55.2466 377.047C55.2466 375.241 54.8592 373.796 54.0842 372.712C53.3093 371.629 52.1767 370.696 50.6864 369.913C49.1961 369.13 46.7818 368.077 43.4436 366.753L41.387 365.94C37.5123 364.375 34.2933 362.87 31.73 361.425C29.2263 359.98 27.14 358.084 25.4708 355.736C23.8017 353.388 22.9672 350.528 22.9672 347.157C22.9672 341.679 25.0238 337.465 29.1369 334.515C33.3097 331.505 38.7641 330 45.5002 330C49.6134 330 53.1602 330.391 56.1408 331.174C59.181 331.957 61.8039 333.161 64.0095 334.786C64.7248 335.328 65.0825 335.839 65.0825 336.321C65.0825 336.682 64.9633 337.013 64.7248 337.314L61.8635 342.01C61.5058 342.552 61.2078 342.823 60.9693 342.823C60.7309 342.823 60.3434 342.642 59.8069 342.281C55.9918 339.813 51.2527 338.579 45.5896 338.579C41.8341 338.579 39.0026 339.271 37.095 340.656C35.1875 342.04 34.2337 344.237 34.2337 347.247C34.2337 349.114 34.6212 350.619 35.3961 351.763C36.2307 352.846 37.4229 353.779 38.9728 354.562C40.5227 355.344 43.0263 356.398 46.4838 357.722L48.7192 358.625C53.0708 360.371 56.4687 361.997 58.9127 363.502C61.3568 364.946 63.2345 366.783 64.546 369.01C65.917 371.177 66.6026 373.977 66.6026 377.408C66.6026 382.585 64.6652 386.679 60.7905 389.689C56.9754 392.639 51.5209 394.114 44.4272 394.114Z" fill="#FF7979"/>
<path d="M97.4709 394.114C89.5426 394.114 83.3431 392.157 78.8722 388.244C74.461 384.271 72.2554 378.612 72.2554 371.268C72.2554 366.692 73.2688 362.659 75.2956 359.167C77.3223 355.676 80.2135 352.967 83.969 351.04C87.7841 349.054 92.2251 348.06 97.2921 348.06C101.048 348.06 104.237 348.421 106.86 349.144C109.483 349.866 111.927 351.04 114.192 352.666C114.728 353.027 114.997 353.418 114.997 353.839C114.997 354.201 114.848 354.622 114.55 355.104L112.135 359.348C111.778 359.95 111.45 360.251 111.152 360.251C110.854 360.251 110.436 360.07 109.9 359.709C108.052 358.565 106.204 357.722 104.356 357.181C102.568 356.579 100.422 356.278 97.918 356.278C93.4472 356.278 89.9301 357.632 87.3668 360.341C84.8036 362.99 83.5219 366.632 83.5219 371.268C83.5219 376.144 84.8036 379.816 87.3668 382.284C89.9301 384.692 93.6856 385.896 98.6333 385.896C101.137 385.896 103.313 385.595 105.161 384.993C107.009 384.391 108.797 383.518 110.526 382.375C111.003 382.074 111.39 381.923 111.688 381.923C112.046 381.923 112.404 382.224 112.761 382.826L115.354 387.251C115.593 387.552 115.712 387.883 115.712 388.244C115.712 388.666 115.414 389.087 114.818 389.508C112.433 391.074 109.87 392.217 107.128 392.94C104.386 393.722 101.167 394.114 97.4709 394.114Z" fill="#FF7979"/>
<path d="M128 392.759C126.808 392.759 125.944 392.488 125.407 391.946C124.871 391.405 124.603 390.592 124.603 389.508V351.853C124.603 350.95 124.752 350.318 125.05 349.957C125.348 349.595 125.974 349.415 126.927 349.415H132.024C132.68 349.415 133.157 349.565 133.455 349.866C133.753 350.107 133.932 350.559 133.991 351.221L134.26 354.472C137.777 350.197 142.397 348.06 148.119 348.06C150.742 348.06 152.739 348.512 154.11 349.415C154.468 349.656 154.676 349.926 154.736 350.227C154.855 350.468 154.855 350.769 154.736 351.13L153.127 356.548C152.948 357.151 152.62 357.452 152.143 357.452L151.428 357.271C149.997 356.609 148.358 356.278 146.51 356.278C143.47 356.278 140.966 357.151 138.999 358.896C137.032 360.582 136.048 362.9 136.048 365.85V389.508C136.048 390.592 135.78 391.405 135.243 391.946C134.766 392.488 133.902 392.759 132.65 392.759H128Z" fill="#FF7979"/>
<path d="M166.272 341.92C164.842 341.92 163.739 341.498 162.964 340.656C162.189 339.813 161.801 338.789 161.801 337.585V335.689C161.801 334.485 162.189 333.462 162.964 332.619C163.739 331.776 164.842 331.355 166.272 331.355H170.117C171.548 331.355 172.651 331.776 173.426 332.619C174.26 333.462 174.677 334.485 174.677 335.689V337.585C174.677 338.789 174.26 339.813 173.426 340.656C172.651 341.498 171.548 341.92 170.117 341.92H166.272ZM165.915 392.759C164.722 392.759 163.858 392.488 163.322 391.946C162.785 391.405 162.517 390.592 162.517 389.508V352.756C162.517 351.612 162.785 350.769 163.322 350.227C163.858 349.686 164.722 349.415 165.915 349.415H170.564C171.757 349.415 172.621 349.686 173.157 350.227C173.694 350.769 173.962 351.612 173.962 352.756V389.508C173.962 390.592 173.694 391.405 173.157 391.946C172.68 392.488 171.816 392.759 170.564 392.759H165.915Z" fill="#FF7979"/>
<path d="M188.601 392.759C187.409 392.759 186.545 392.488 186.008 391.946C185.472 391.405 185.203 390.592 185.203 389.508V351.853C185.203 350.95 185.353 350.318 185.651 349.957C185.949 349.595 186.575 349.415 187.528 349.415H192.267C192.923 349.415 193.4 349.565 193.698 349.866C193.996 350.107 194.175 350.559 194.235 351.221L194.503 355.013C196.232 352.786 198.199 351.07 200.404 349.866C202.67 348.662 205.352 348.06 208.452 348.06C211.075 348.06 213.34 348.662 215.248 349.866C217.215 351.01 218.645 352.726 219.54 355.013C222.818 350.378 227.557 348.06 233.757 348.06C237.989 348.06 241.327 349.355 243.771 351.943C246.275 354.532 247.527 358.385 247.527 363.502V389.508C247.527 390.592 247.259 391.405 246.722 391.946C246.245 392.488 245.381 392.759 244.129 392.759H240.195C239.003 392.759 238.138 392.488 237.602 391.946C237.065 391.405 236.797 390.592 236.797 389.508V364.134C236.797 361.365 236.201 359.378 235.009 358.174C233.876 356.97 232.147 356.368 229.822 356.368C227.378 356.368 225.381 357.181 223.832 358.806C222.341 360.431 221.596 362.629 221.596 365.398V389.508C221.596 390.592 221.328 391.405 220.791 391.946C220.255 392.488 219.391 392.759 218.198 392.759H214.532C213.34 392.759 212.476 392.488 211.939 391.946C211.403 391.405 211.134 390.592 211.134 389.508V363.682C211.134 361.154 210.598 359.318 209.525 358.174C208.511 356.97 206.872 356.368 204.607 356.368C202.044 356.368 199.957 357.241 198.348 358.987C196.738 360.672 195.934 362.9 195.934 365.669V389.508C195.934 390.592 195.665 391.405 195.129 391.946C194.652 392.488 193.787 392.759 192.536 392.759H188.601Z" fill="#FF7979"/>
<path d="M260.901 411C259.709 411 258.845 410.729 258.308 410.187C257.831 409.645 257.593 408.833 257.593 407.749V353.749C259.858 352.124 262.868 350.769 266.624 349.686C270.439 348.602 274.254 348.06 278.069 348.06C295.356 348.06 304 355.766 304 371.177C304 378.281 302.092 383.88 298.277 387.973C294.522 392.067 289.336 394.114 282.719 394.114C276.698 394.114 272.078 392.368 268.859 388.876V407.749C268.859 408.893 268.591 409.706 268.054 410.187C267.578 410.729 266.713 411 265.461 411H260.901ZM280.036 385.896C284.269 385.896 287.428 384.602 289.514 382.013C291.601 379.425 292.644 375.692 292.644 370.816C292.644 365.579 291.422 361.876 288.978 359.709C286.534 357.482 282.778 356.368 277.711 356.368C273.956 356.368 271.005 356.94 268.859 358.084V375.873C268.859 378.943 269.932 381.381 272.078 383.187C274.224 384.993 276.877 385.896 280.036 385.896Z" fill="#FF7979"/>
</svg>
